<?xml version="1.0" encoding="utf-8"?>
<!-- Generator: Adobe Illustrator 26.0.3, SVG Export Plug-In . SVG Version: 6.00 Build 0)  -->
<svg version="1.1" id="Layer_1" xmlns="http://www.w3.org/2000/svg" xmlns:xlink="http://www.w3.org/1999/xlink" x="0px" y="0px"
	 viewBox="0 0 1641 1218" style="enable-background:new 0 0 1641 1218;" xml:space="preserve">
<style type="text/css">
	.st0{fill:#218AD3;}
	.st1{fill:#1E8BD5;}
	.st2{fill:#1F8BD3;}
	.st3{fill:#231F20;}
	.st4{fill:#929497;}
	.st5{fill:#1E8AD3;}
</style>
<path class="st0" d="M659,14l-1,2L659,14z"/>
<path class="st1" d="M661.7,14.3l0.7,0.3L661.7,14.3z"/>
<path class="st0" d="M663,14l1,1L663,14 M680,14l1,1L680,14z"/>
<path class="st2" d="M654,15l1,1L654,15z"/>
<path class="st0" d="M655.3,15.7l0.3,0.7L655.3,15.7z"/>
<path class="st1" d="M657,15l1,1L657,15 M659,15l1,1L659,15 M680,15l1,1L680,15 M683,15l1,1L683,15 M685,15l1,1L685,15z"/>
<path class="st0" d="M686,15l1,1L686,15z"/>
<path class="st1" d="M653.7,16.3l0.7,0.3L653.7,16.3 M688.3,16.7l0.3,0.7L688.3,16.7 M648,17l1,1L648,17z"/>
<path class="st0" d="M650,17l1,1L650,17 M689,17l-1,2h2L689,17z"/>
<path class="st1" d="M646,18l1,1L646,18z"/>
<path class="st0" d="M649.3,18.7l0.3,0.7L649.3,18.7z"/>
<path class="st1" d="M652,18v1l4,2L652,18z"/>
<path class="st0" d="M654,18l1,1L654,18z"/>
<path class="st1" d="M691,18v3h1L691,18z"/>
<path class="st0" d="M692,18l1,1L692,18z"/>
<path class="st1" d="M694,18l1,1L694,18z"/>
<path class="st0" d="M644,19l1,1L644,19 M652,19l3,2v-1L652,19z"/>
<path class="st1" d="M689,19l-1,2h2L689,19z"/>
<path class="st0" d="M694,19l1,1L694,19 M696,19l2,2L696,19z"/>
<path class="st1" d="M642,20l1,3h1l1-3H642 M646,20l-1,2L646,20 M648,20v4h1h1v-3l2,2v-3H648z"/>
<path class="st2" d="M649,20l1,1L649,20 M652,20l1,1L652,20z"/>
<path class="st0" d="M692,20l1,1L692,20z"/>
<path class="st1" d="M694,20l1,1L694,20 M696,20l-1,3h3L696,20 M698,20l1,1L698,20z"/>
<path class="st0" d="M642,21l1,1L642,21 M648,21l1,1L648,21 M650,21l1,1L650,21 M688,21l1,1L688,21 M693.3,21.7l0.3,0.7L693.3,21.7
	 M695,21l1,1L695,21z"/>
<path class="st1" d="M700,21l1,1L700,21z"/>
<path class="st0" d="M641,22l1,1L641,22 M649,22l1,1L649,22 M653,22l2,2v-2H653 M696.3,22.7l0.3,0.7L696.3,22.7 M698.3,22.7l0.3,0.7
	L698.3,22.7z"/>
<path class="st1" d="M699.3,22.7l0.3,0.7L699.3,22.7z"/>
<path class="st1" d="M642,23l1,1L642,23z"/>
<path class="st0" d="M646,23l1,1L646,23z"/>
<g>
	<polygon id="XMLID_1764_" class="st3" points="827.1,449.5 768.1,508.4 753.5,523 738.9,508.4 736.1,505.5 744.7,496.9 
		750.7,490.9 809.6,432 815.5,426.1 821.3,420.2 824.2,417.3 827.1,420.2 841.7,434.8 	"/>
	<polygon id="XMLID_1756_" class="st3" points="897.8,520.2 838.9,579.1 824.3,593.8 821.4,590.9 806.8,576.3 821.4,561.7 
		880.3,502.7 895,488.1 909.6,502.7 912.4,505.5 	"/>
	<g id="XMLID_598_">
		<path id="XMLID_1757_" class="st4" d="M1340.6,363.7c0,16.7-6.5,32.3-18.2,44.1l-298,298.1c-11.8,11.8-27.4,18.2-44,18.2
			c-16.7,0-32.3-6.5-44.1-18.2l-97.4-97.4l14.6-14.7l58.9-59l14.6-14.6l53.2,53.2L1190,363.8L980.3,154.1l-67.8,67.9l-8.7,8.6l-6,6
			l-59,59l-5.8,5.8l-8.7,8.8l-53.6,53.6l39,39l-2.9,2.9l-5.9,6l-5.8,5.9l-58.9,58.8l-6,5.9l-8.7,8.7l-83.1-83.1
			C626.5,396,620,380.4,620,363.7c0-16.6,6.5-32.3,18.2-44l83.1-83.1h0l14.6-14.6l2.9-2.8h0l5.8-5.8l6-6.1l64.9-64.9l5.7-5.7
			l2.9-2.8l0.1-0.1l14.6-14.6l97.4-97.4C948,9.9,963.6,3.4,980.3,3.4c16.6,0,32.3,6.5,44,18.2l298,298
			C1334.1,331.4,1340.6,347.1,1340.6,363.7z"/>
		<g id="XMLID_1569_">
			<rect id="XMLID_1730_" x="1158.1" y="806.3" class="st4" width="187.2" height="45.7"/>
			<g id="XMLID_1613_">
				<path id="XMLID_1728_" class="st4" d="M490.5,1198.7c-11.4,11.3-26.2,16.5-42.3,16.5c-41.3,0-58.8-28.4-58.9-57.4
					c-0.2-29.1,18.7-58.6,58.9-58.6c15.1,0,29.4,5.7,40.8,17l-14,13.5c-7.3-7.1-17.2-10.5-26.8-10.5c-26.8,0-38.4,20-38.3,38.6
					c0.2,18.4,10.8,37.7,38.3,37.7c9.7,0,20.7-4,28-11.3L490.5,1198.7z"/>
				<path id="XMLID_1725_" class="st4" d="M608.4,1191.7h-58.1l-9.5,21H518l49.9-111.2h22.9l49.9,111.2h-22.9L608.4,1191.7z
					 M579.3,1124.8l-20.7,47.3h41.3L579.3,1124.8z"/>
				<path id="XMLID_1722_" class="st4" d="M732.9,1180h-31.5v32.7h-21v-111.2c17.5,0,35-0.2,52.4-0.2
					C787.2,1101.3,787.4,1180,732.9,1180z M701.4,1160.7h31.5c26.8,0,26.7-39.4,0-39.4h-31.5V1160.7z"/>
				<path id="XMLID_1720_" class="st4" d="M820.1,1212.7v-111.2h20.8v111.2H820.1z"/>
				<path id="XMLID_1718_" class="st4" d="M921.4,1120.5h-35.3v-19.1c32.1,0,59.3,0,91.5,0v19.1h-35.3v92.1h-21V1120.5z"/>
				<path id="XMLID_1715_" class="st4" d="M1101.4,1191.7h-58.1l-9.5,21H1011l49.9-111.2h22.9l49.9,111.2h-22.9L1101.4,1191.7z
					 M1072.4,1124.8l-20.7,47.3h41.3L1072.4,1124.8z"/>
				<path id="XMLID_1616_" class="st4" d="M1194.5,1101.5v91.8h57.2v19.4h-78.2v-111.2H1194.5z"/>
				<rect id="XMLID_1615_" x="1304.1" y="1148.9" class="st4" width="331.1" height="23.6"/>
				<rect id="XMLID_1614_" x="5.9" y="1148.9" class="st4" width="331.1" height="23.6"/>
			</g>
		</g>
	</g>
	<g id="XMLID_524_">
		<path id="XMLID_1742_" class="st5" d="M233.5,1025c-25.7,25.4-59,37.2-95,37.2c-92.9,0-132.2-64-132.6-129
			C5.5,867.7,48,801.3,138.4,801.3c33.9,0,66.1,12.9,91.8,38.2l-31.4,30.4c-16.4-16.1-38.6-23.6-60.4-23.6
			c-60.4,0-86.5,45-86.1,86.8c0.4,41.4,24.3,84.7,86.1,84.7c21.8,0,46.4-8.9,62.9-25.4L233.5,1025z"/>
		<path id="XMLID_1740_" class="st5" d="M393.6,909.6l66.5-103.3h56.8v2.1l-99.7,144.7v103.3H370V953.1l-96.1-144.7v-2.1H330
			L393.6,909.6z"/>
		<path id="XMLID_1737_" class="st5" d="M694.9,982.8h-70.7v73.6H577V806.3c39.3,0,78.6-0.4,117.9-0.4
			C817.1,805.9,817.4,982.8,694.9,982.8z M624.1,939.6h70.7c60.4,0,60-88.6,0-88.6h-70.7V939.6z"/>
		<path id="XMLID_1735_" class="st5" d="M1028.3,1056.8V955.6H905.4v101.1h-47.2V806.6h47.2v105.4h122.9V806.6h46.8v250.1H1028.3z"
			/>
		<polygon id="XMLID_1734_" class="st5" points="1204.9,953.5 1340.3,953.5 1340.3,909.6 1158.1,909.6 1158.1,1056.4 1345.3,1056.4 
			1345.3,1010 1204.9,1010 		"/>
		<path id="XMLID_1731_" class="st5" d="M1635.1,1056.4H1579l-72.9-83.6h-45.4v83.6h-47.2V805.9c39.7,0,79.3,0.4,119,0.4
			c59,0.4,90,39.7,90,82.9c0,34.3-15.7,69-63.2,78.6l75.7,85.4V1056.4z M1460.8,850.2v80h71.8c30,0,42.9-20,42.9-40
			c0-20-13.2-40-42.9-40H1460.8z"/>
		<path id="XMLID_1761_" class="st5" d="M1028.4,363.7c0,16.7-6.5,32.3-18.2,44.1L927,490.9l-7.3,7.3l-7.3,7.3l-14.6,14.6l-58.9,59
			l-14.6,14.6l-7.3,7.3l-7.3,7.3l-97.4,97.4c-11.8,11.8-27.4,18.2-44.1,18.2c-16.6,0-32.3-6.5-44-18.2l-298-298.1
			c-11.8-11.8-18.2-27.4-18.2-44.1c0-16.6,6.5-32.3,18.2-44l298-298c11.7-11.8,27.4-18.2,44-18.2c16.6,0,32.3,6.5,44.1,18.2
			l97.4,97.4l-2.9,2.9l-5.8,5.8l-65,65l-6,6l-5.8,5.8l-2.9,2.9l-53.2-53.2L458.5,363.8l209.7,209.7l53.3-53.2l7.3-7.3l7.3-7.3
			l8.7-8.7l5.9-5.9l59-58.9l5.8-5.9l5.9-5.9l2.9-2.9l3.2-3.2l4.1-4.1l7.3-7.3l39-39l-39-39l8.7-8.8l5.8-5.8l59.1-59l5.9-6l8.7-8.6
			l83.1,83.1C1022,331.4,1028.4,347.1,1028.4,363.7z"/>
	</g>
</g>
</svg>
